# xmcd
#
# Track frame offsets: 
#        150
#        86270
#        128857
#        154987
#        193650
#
# Disc length: 3190 seconds
#
# Revision: 0
# Processed by: cddbd v1.5.2PL0 Copyright (c) Steve Scherf et al.
# Submitted via: ExactAudioCopy v1.0b1
#
DISCID=390c7405
DTITLE=Eugen Jochum - Brahms Symphony No.2 ,Japan EMI,CD8
DYEAR=2002
DGENRE=Classical
TTITLE0=Brahms.Symphony No.2 in D, Op.73：I. Allegro non troppo
TTITLE1=Brahms.Symphony No.2 in D, Op.73：II. Adagio non troppo
TTITLE2=Brahms.Symphony No.2 in D, Op.73：III. Allegretto grazioso（Quas
TTITLE2=i andantino）
TTITLE3=Brahms.Symphony No.2 in D, Op.73：IV. Allegro con spirito
TTITLE4=op.81
EXTD=
EXTT0=
EXTT1=
EXTT2=
EXTT3=
EXTT4=
PLAYORDER=
